<svg width="139" height="30" viewBox="0 0 139 30" fill="none" xmlns="http://www.w3.org/2000/svg">
<path d="M134 0.127008C134.531 0.120273 135.058 0.222384 135.548 0.427045C136.038 0.631707 136.481 0.934584 136.85 1.31701C137.235 1.68607 137.539 2.1306 137.744 2.62275C137.948 3.1149 138.049 3.64404 138.04 4.17701C138.047 4.70255 137.948 5.22414 137.749 5.71047C137.55 6.19679 137.254 6.6378 136.88 7.00701C136.507 7.38952 136.062 7.69353 135.57 7.90111C135.078 8.10869 134.549 8.21563 134.015 8.21563C133.481 8.21563 132.952 8.10869 132.46 7.90111C131.968 7.69353 131.523 7.38952 131.15 7.00701C130.779 6.63593 130.486 6.19436 130.289 5.70831C130.091 5.22227 129.993 4.7016 130 4.17701C129.992 3.64429 130.094 3.11568 130.299 2.62379C130.504 2.1319 130.807 1.68716 131.19 1.31701C131.933 0.564599 132.943 0.136761 134 0.127008ZM134 7.56701C134.446 7.57311 134.888 7.48749 135.299 7.31545C135.71 7.14342 136.081 6.88866 136.39 6.56701C136.711 6.25813 136.966 5.88668 137.138 5.47561C137.31 5.06454 137.396 4.62258 137.39 4.17701C137.396 3.73144 137.31 3.28947 137.138 2.8784C136.966 2.46733 136.711 2.09589 136.39 1.78701C135.756 1.15315 134.896 0.79705 134 0.79705C133.104 0.79705 132.244 1.15315 131.61 1.78701C131.289 2.09589 131.034 2.46733 130.862 2.8784C130.69 3.28947 130.604 3.73144 130.61 4.17701C130.604 4.62258 130.69 5.06454 130.862 5.47561C131.034 5.88668 131.289 6.25813 131.61 6.56701C131.918 6.88963 132.289 7.14503 132.7 7.31713C133.112 7.48924 133.554 7.57431 134 7.56701ZM135.82 6.42701H135L134.66 5.42701C134.592 5.17631 134.442 4.95586 134.233 4.80152C134.024 4.64719 133.769 4.56806 133.51 4.57701H133V6.42701H132.3V2.06701H133.94C135.09 2.06701 135.67 2.46701 135.67 3.26701C135.691 3.42619 135.676 3.58795 135.628 3.74093C135.579 3.89392 135.498 4.03442 135.389 4.15258C135.28 4.27074 135.147 4.3637 134.999 4.42493C134.85 4.48616 134.69 4.51417 134.53 4.50701C134.728 4.56867 134.909 4.67584 135.058 4.81996C135.208 4.96409 135.321 5.14116 135.39 5.33701L135.82 6.42701ZM133 4.00701H133.88C134.57 4.00701 134.88 3.78701 134.88 3.32701C134.88 2.86701 134.52 2.65701 133.81 2.65701H133V4.00701Z" fill="#878787"/>
<path d="M126.85 0.787008H118.47C118.337 0.786656 118.207 0.820529 118.091 0.88535C117.976 0.95017 117.879 1.04374 117.81 1.15701L113.36 8.39701C113.29 8.50856 113.192 8.60048 113.077 8.66419C112.962 8.7279 112.832 8.76132 112.7 8.76132C112.568 8.76132 112.438 8.7279 112.323 8.66419C112.208 8.60048 112.11 8.50856 112.04 8.39701L107.53 1.14701C107.459 1.0369 107.361 0.94632 107.246 0.883466C107.13 0.820612 107.001 0.787461 106.87 0.787008H98.54C98.3967 0.784057 98.2554 0.820637 98.1315 0.892734C98.0077 0.96483 97.9061 1.06966 97.8379 1.1957C97.7697 1.32175 97.7376 1.46415 97.745 1.60727C97.7524 1.75039 97.7991 1.8887 97.88 2.00701L106 14.817C106.083 14.9431 106.128 15.0909 106.128 15.242C106.128 15.3932 106.083 15.541 106 15.667L98 27.547C97.9228 27.6638 97.8785 27.7992 97.8716 27.9391C97.8648 28.0789 97.8958 28.218 97.9612 28.3418C98.0267 28.4655 98.1243 28.5694 98.2437 28.6425C98.3631 28.7155 98.5 28.7551 98.64 28.757H106.94C107.068 28.758 107.193 28.7263 107.305 28.6651C107.417 28.6038 107.512 28.515 107.58 28.407L112.1 21.667C112.17 21.5597 112.266 21.4716 112.378 21.4105C112.491 21.3495 112.617 21.3176 112.745 21.3176C112.873 21.3176 112.999 21.3495 113.112 21.4105C113.224 21.4716 113.32 21.5597 113.39 21.667L117.86 28.407C117.928 28.515 118.023 28.6038 118.135 28.6651C118.247 28.7263 118.372 28.758 118.5 28.757H126.85C126.99 28.7551 127.127 28.7155 127.246 28.6425C127.366 28.5694 127.463 28.4655 127.529 28.3418C127.594 28.218 127.625 28.0789 127.618 27.9391C127.612 27.7992 127.567 27.6638 127.49 27.547L119.38 15.667C119.297 15.539 119.253 15.3896 119.253 15.237C119.253 15.0844 119.297 14.935 119.38 14.807L127.51 2.00701C127.595 1.88957 127.645 1.75059 127.654 1.60604C127.664 1.46148 127.632 1.31721 127.563 1.1898C127.494 1.06238 127.391 0.957001 127.265 0.885751C127.138 0.814502 126.995 0.780277 126.85 0.787008Z" fill="#878787"/>
<path d="M95.47 25.857L102.71 15.187L95.35 3.58701C94.9983 3.03165 94.7983 2.39377 94.77 1.73701C92.5306 0.659306 90.0752 0.105321 87.59 0.117008C85.0311 0.0538358 82.4965 0.625348 80.2123 1.78051C77.9282 2.93567 75.9656 4.63853 74.5 6.73701C74.43 6.84431 74.3344 6.93246 74.2218 6.99347C74.1092 7.05449 73.9831 7.08644 73.855 7.08644C73.7269 7.08644 73.6008 7.05449 73.4882 6.99347C73.3756 6.93246 73.28 6.84431 73.21 6.73701C71.7721 4.64856 69.8377 2.95022 67.5807 1.79468C65.3238 0.639142 62.815 0.0626394 60.28 0.117008C57.7442 0.058699 55.2329 0.623583 52.9663 1.7621C50.6997 2.90062 48.7472 4.57797 47.28 6.64701C47.1992 6.75907 47.09 6.84766 46.9638 6.9037C46.8375 6.95975 46.6985 6.98124 46.5612 6.96598C46.4239 6.95072 46.2931 6.89926 46.1822 6.81686C46.0713 6.73446 45.9842 6.62408 45.93 6.49701C45.1528 4.54731 43.799 2.88127 42.0496 1.72155C40.3002 0.561822 38.2385 -0.0363375 36.14 0.00700838C34.3976 -0.0357241 32.6666 0.29973 31.0663 0.990267C29.466 1.6808 28.0343 2.71001 26.87 4.00701C26.7934 4.08968 26.6997 4.15453 26.5953 4.197C26.4909 4.23947 26.3785 4.25851 26.266 4.25279C26.1534 4.24707 26.0435 4.21672 25.944 4.16388C25.8445 4.11105 25.7578 4.03702 25.69 3.94701C24.6683 2.66938 23.3624 1.64791 21.8763 0.963897C20.3902 0.279887 18.765 -0.0477694 17.13 0.00700838C14.6103 -0.0832792 12.1371 0.7011 10.13 2.22701C10.016 2.31194 9.88072 2.36365 9.73914 2.37643C9.59756 2.3892 9.45521 2.36253 9.32785 2.29937C9.2005 2.23621 9.09312 2.13903 9.0176 2.01859C8.94208 1.89815 8.90138 1.75916 8.9 1.61701C8.9 1.41014 8.81782 1.21174 8.67154 1.06547C8.52526 0.919187 8.32687 0.837008 8.12 0.837008H0.78C0.573131 0.837008 0.374735 0.919187 0.228457 1.06547C0.0821783 1.21174 0 1.41014 0 1.61701L0 28.007C0 28.2139 0.0821783 28.4123 0.228457 28.5586C0.374735 28.7048 0.573131 28.787 0.78 28.787H8.12C8.32687 28.787 8.52526 28.7048 8.67154 28.5586C8.81782 28.4123 8.9 28.2139 8.9 28.007V15.077C8.9 10.407 11 8.00701 14.24 8.00701C16.9 8.00701 19 10.007 19 13.187V28.007C19 28.2139 19.0822 28.4123 19.2285 28.5586C19.3747 28.7048 19.5731 28.787 19.78 28.787H27.12C27.3269 28.787 27.5253 28.7048 27.6715 28.5586C27.8178 28.4123 27.9 28.2139 27.9 28.007V15.077C27.86 10.407 30 8.00701 33.31 8.00701C35.92 8.00701 38 10.007 38 13.187V28.007C38 28.2139 38.0822 28.4123 38.2285 28.5586C38.3747 28.7048 38.5731 28.787 38.78 28.787H46.07C46.2751 28.7844 46.471 28.701 46.6151 28.555C46.7592 28.4091 46.84 28.2122 46.84 28.007V24.727C46.8385 24.567 46.8868 24.4105 46.9783 24.2792C47.0698 24.1479 47.2 24.0484 47.3507 23.9945C47.5013 23.9406 47.665 23.935 47.8191 23.9785C47.9731 24.0219 48.1097 24.1123 48.21 24.237C49.7213 25.9431 51.5851 27.3006 53.6725 28.2157C55.76 29.1308 58.0212 29.5816 60.3 29.537C62.8369 29.5901 65.3472 29.0109 67.6045 27.8517C69.8617 26.6925 71.795 24.9898 73.23 22.897C73.3015 22.7918 73.3977 22.7057 73.5101 22.6462C73.6225 22.5867 73.7478 22.5556 73.875 22.5556C74.0022 22.5556 74.1275 22.5867 74.2399 22.6462C74.3523 22.7057 74.4485 22.7918 74.52 22.897C75.9808 25.0018 77.9419 26.7105 80.2268 27.8695C82.5117 29.0285 85.0488 29.6015 87.61 29.537C90.1147 29.5495 92.5887 28.9849 94.84 27.887C94.8515 27.164 95.0702 26.4595 95.47 25.857ZM60.28 22.007C59.3475 22.0025 58.4255 21.8098 57.5692 21.4406C56.713 21.0713 55.94 20.533 55.2967 19.858C54.6534 19.1829 54.1529 18.3849 53.8253 17.5119C53.4977 16.6388 53.3496 15.7086 53.39 14.777C53.3398 13.8517 53.4788 12.9258 53.7984 12.0559C54.1179 11.1861 54.6114 10.3905 55.2487 9.7177C55.886 9.04491 56.6537 8.50907 57.505 8.14288C58.3563 7.77668 59.2733 7.58782 60.2 7.58782C61.1267 7.58782 62.0437 7.77668 62.895 8.14288C63.7463 8.50907 64.514 9.04491 65.1513 9.7177C65.7886 10.3905 66.2821 11.1861 66.6016 12.0559C66.9212 12.9258 67.0602 13.8517 67.01 14.777C67.0529 15.696 66.9118 16.6144 66.5951 17.4782C66.2783 18.342 65.7922 19.1338 65.1654 19.8072C64.5385 20.4807 63.7835 21.0221 62.9446 21.3999C62.1057 21.7776 61.1997 21.984 60.28 22.007ZM87.59 22.007C86.6571 22.0024 85.7346 21.8098 84.8778 21.4407C84.021 21.0715 83.2475 20.5334 82.6034 19.8585C81.9593 19.1836 81.4579 18.3857 81.1291 17.5126C80.8003 16.6395 80.651 15.7091 80.69 14.777C80.6281 13.844 80.7584 12.9083 81.0728 12.0277C81.3873 11.1471 81.8792 10.3405 82.5181 9.65775C83.157 8.97503 83.9292 8.43077 84.7871 8.05868C85.6449 7.68659 86.57 7.4946 87.505 7.4946C88.44 7.4946 89.3651 7.68659 90.2229 8.05868C91.0807 8.43077 91.853 8.97503 92.4919 9.65775C93.1308 10.3405 93.6227 11.1471 93.9372 12.0277C94.2516 12.9083 94.3819 13.844 94.32 14.777C94.3629 15.696 94.2218 16.6144 93.9051 17.4782C93.5883 18.342 93.1022 19.1338 92.4754 19.8072C91.8485 20.4807 91.0935 21.0221 90.2546 21.3999C89.4157 21.7776 88.5097 21.984 87.59 22.007Z" fill="#878787"/>
</svg>
